<svg fill="#000000" xmlns="http://www.w3.org/2000/svg" viewBox="0 0 64 64" width="64px" height="64px"><path d="M48,26.032c0-3.728-1.594-7.396-4.372-10.062c-2.925-2.807-6.955-4.353-11.353-4.353c-8.602,0-17.499,5.813-17.499,15.543c0,4.053,1.267,7.197,3.565,8.853c0.677,0.486,1.519,0.407,2.255-0.21c1.218-1.021,2.627-4.205,1.924-5.665c-0.395-0.819-0.57-1.57-0.57-2.436c0-3.918,2.708-9.437,8.728-9.437c2.837,0,5.651,1.095,7.344,2.856c1.214,1.264,1.795,2.764,1.728,4.46c-0.229,5.76-3.413,10.664-5.907,10.623c-0.765-0.01-1.354-0.273-1.805-0.806c-0.6-0.71-0.758-1.71-0.721-1.955c0.223-0.934,0.529-1.925,0.825-2.885c0.59-1.908,1.147-3.712,1.147-5.281c0-1.913,0-5.115-3.871-5.23c-1.449-0.027-2.763,0.501-3.864,1.569c-1.479,1.436-2.326,3.631-2.326,6.024c0,0.968,0.125,1.927,0.373,2.85c0.143,0.532,0.157,1.045,0.043,1.526L21.18,42.464c-0.724,3.052-0.454,6.569-0.102,8.968c0.118,0.899,0.76,1.635,1.638,1.873c0.196,0.053,0.396,0.079,0.601,0.079c0.702-0.002,1.353-0.319,1.844-0.95c1.245-1.595,2.295-5.404,3.139-8.465l0.072-0.261c0.111-0.407,0.398-1.524,0.694-2.688c1.089,0.844,2.605,1.727,5.185,1.872c3.193,0.18,6.164-0.928,8.571-3.204C46.112,36.577,48,31.6,48,26.032z M34.362,40.896c-2.542-0.144-3.657-1.089-4.736-2.002c-0.175-0.149-0.346-0.293-0.517-0.43c-0.266-0.213-0.619-0.274-0.943-0.168c-0.322,0.108-0.567,0.373-0.651,0.703c-0.389,1.537-0.914,3.597-1.072,4.18l-0.071,0.258c-0.755,2.736-1.788,6.485-2.847,7.844c-0.052,0.064-0.137,0.103-0.286,0.093c-0.097-0.026-0.164-0.104-0.18-0.218c-0.269-1.834-0.618-5.343,0.067-8.232l2.465-10.446c0.188-0.795,0.167-1.66-0.059-2.504c-0.202-0.755-0.305-1.539-0.305-2.332c0-1.828,0.643-3.544,1.72-4.589c0.478-0.464,1.262-1.007,2.319-1.007c0.03,0,0.062,0.001,0.093,0.002c1.519,0.044,1.93,0.451,1.93,3.23c0,1.268-0.514,2.931-1.058,4.691c-0.307,0.99-0.623,2.014-0.861,3.013c-0.196,0.833,0.142,2.436,1.029,3.571c0.83,1.062,2.012,1.634,3.417,1.651c0.018,0,0.035,0,0.053,0c4.225,0,7.641-6.602,7.878-12.543c0.09-2.229-0.7-4.278-2.283-5.926c-2.088-2.173-5.373-3.471-8.786-3.471c-5.273,0-10.728,4.277-10.728,11.437c0,1.165,0.244,2.214,0.754,3.268c0.167,0.645-0.754,2.794-1.365,3.29c-1.631-1.298-2.562-3.868-2.562-7.1c0-8.478,7.881-13.543,15.503-13.543c3.875,0,7.413,1.348,9.964,3.796C44.631,19.705,46,22.847,46,26.032c0,5.021-1.659,9.468-4.553,12.203C39.45,40.124,36.986,41.034,34.362,40.896z"/><path d="M57.647,19.558C51.338,4.864,34.249-1.956,19.558,4.353C4.864,10.662-1.956,27.749,4.353,42.442C9.065,53.417,19.79,60,31.04,60c3.812,0,7.685-0.756,11.402-2.353C57.136,51.338,63.956,34.251,57.647,19.558z M41.653,55.81C27.973,61.684,12.065,55.333,6.19,41.653C0.316,27.974,6.667,12.064,20.347,6.19C34.024,0.314,49.934,6.666,55.81,20.347C61.684,34.026,55.333,49.936,41.653,55.81z"/><path d="M40.205 49.901c-.219-.508-.807-.74-1.313-.524-.508.218-.742.806-.524 1.313l.789 1.838c.163.379.531.605.919.605.132 0 .266-.026.395-.081.508-.218.742-.806.524-1.313L40.205 49.901zM44.446 47.075c-.341-.433-.969-.508-1.404-.166-.434.342-.508.971-.166 1.404l1.238 1.571c.197.25.49.381.786.381.217 0 .435-.07.618-.215.434-.342.508-.971.166-1.404L44.446 47.075zM29.414 50.75c-.551-.067-1.046.327-1.111.875l-.235 1.985c-.064.549.327 1.046.875 1.111.04.005.08.007.119.007.5 0 .932-.374.992-.882l.235-1.985C30.354 51.312 29.962 50.815 29.414 50.75zM47.812 43.248c-.443-.332-1.069-.24-1.399.202-.331.442-.24 1.069.202 1.399l1.603 1.197c.18.135.39.199.598.199.305 0 .605-.139.802-.401.331-.442.24-1.069-.202-1.399L47.812 43.248zM34.242 50.688c-.547.079-.926.586-.846 1.133l.287 1.979c.072.498.499.856.988.856.048 0 .096-.003.145-.011.547-.079.926-.586.846-1.133l-.287-1.979C35.295 50.986 34.79 50.599 34.242 50.688zM29.595 9.1c.766-.035 1.535-.03 2.293.016.021.001.042.002.062.002.524 0 .965-.408.997-.938.034-.552-.386-1.025-.937-1.06-.832-.052-1.676-.056-2.51-.018-.552.026-.979.495-.952 1.046C28.574 8.7 29.071 9.111 29.595 9.1zM25.491 9.712c.535-.135.86-.679.726-1.214-.135-.536-.68-.856-1.214-.726-5.081 1.279-9.61 4.277-12.752 8.439-.333.44-.245 1.068.195 1.4.181.137.392.202.602.202.303 0 .603-.137.799-.397C16.715 13.617 20.851 10.881 25.491 9.712z"/></svg>