<svg xmlns="http://www.w3.org/2000/svg" xmlns:xlink="http://www.w3.org/1999/xlink" width="1006.995" height="76.021" viewBox="0 0 944.058 71.27"><g transform="translate(-68.943 -423.924)"><g id="b" fill="none" fill-rule="evenodd" stroke="#000" stroke-width="3.5"><path d="M68.943 426.699h38.386M88.388 425.362v69"/></g><g id="a" fill-rule="evenodd" stroke="#000"><path d="M112 494.362h-3l26-69 26 69h-3l-23-62z" stroke-width=".75"/><path d="M122 465.362h26" fill="none" stroke-width="3.5"/></g><path d="M185 494.362v-29l-23-40h4l20.75 36.113 20.75-36.113h4l-23 40v29z" fill-rule="evenodd" stroke="#000"/><use xlink:href="#a" id="d" transform="translate(104.5)" width="100%" height="100%"/><path d="M622.43 494.362l-.353-69" id="c" fill="none" fill-rule="evenodd" stroke="#000" stroke-width="3.5"/><path d="M638.34 494.455v-69.297l39.93 69.16v-68.983" fill="none" stroke="#000" stroke-width="3.5" stroke-linejoin="bevel"/><use xlink:href="#b" transform="translate(619.602 .354)" width="100%" height="100%"/><path d="M769.509 427.103H738v32.527h31.155H738v33.234h31.686" id="e" fill="none" fill-rule="evenodd" stroke="#000" stroke-width="3.5"/><use xlink:href="#c" transform="translate(210.187 -.009)" width="100%" height="100%"/><use xlink:href="#d" transform="translate(313.042 -.375)" width="100%" height="100%"/><use xlink:href="#e" transform="translate(-344 -.252)" width="100%" height="100%"/><path d="M354 425.362v67.25h28.75M440.75 494.362l-.25-69" fill="none" stroke="#000" stroke-width="3.5"/></g><circle cx="813.807" cy="35.939" r="32.75" fill="none" stroke="#000" stroke-width="3.5" stroke-linejoin="bevel"/><g id="f" fill-rule="evenodd"><path d="M863.307 70.438V3.188h15.5c25 2.75 24.931 41.25 0 41.25h-15.75" fill="none" stroke="#000" stroke-width="3.5"/><path d="M946 468.612l17 25.75h4l-17-25.875z" transform="translate(-68.943 -423.924)"/></g><use xlink:href="#f" transform="translate(-148)" width="100%" height="100%"/><path d="M935.502 10.604s-.53-7.248-11.137-7.601c-7.774-.26-12.816 6.01-12.816 12.816 0 6.806 6.075 10.432 12.816 13.7 11.668 5.657 17.943 12.763 17.943 22.009 0 9.57-6.452 17.766-17.766 17.766-11.314 0-16.617-6.895-18.385-14.673" id="g" fill="none" fill-rule="evenodd" stroke="#000" stroke-width="3.5"/><use xlink:href="#g" transform="translate(-491.5 -.605)" width="100%" height="100%"/><path d="M372.62 32.126l23.625-30.688h4.812l-21 27.75 27 41.25h-4.937l-24.625-38.25-4.688 5.5zM278.057 70.438l-32-69h-4l32 69z" fill-rule="evenodd"/><path d="M259.682 35.313h-24l2.625 3.625 22.625-.125z" fill="none"/><path d="M260.557 39.563h-23.5l1.822 3.156h23.553z" fill-rule="evenodd" stroke="#000"/></svg>